<svg xmlns="http://www.w3.org/2000/svg" viewBox="0 0 71.694 9.821"><defs><style>.cls-1{fill:#d9e021;}.cls-2{fill:#e1e1e1;}</style></defs><title>full-star</title><g id="Layer_2" data-name="Layer 2"><g id="Layer_1-2" data-name="Layer 1"><polygon class="cls-1" points="5.163 0 6.759 3.233 10.326 3.751 7.745 6.268 8.354 9.821 5.163 8.143 1.972 9.821 2.582 6.268 0 3.751 3.568 3.233 5.163 0"/><polygon class="cls-1" points="20.505 0 22.101 3.233 25.668 3.751 23.087 6.268 23.696 9.821 20.505 8.143 17.314 9.821 17.924 6.268 15.342 3.751 18.91 3.233 20.505 0"/><polygon class="cls-1" points="35.847 0 37.443 3.233 41.01 3.751 38.429 6.268 39.038 9.821 35.847 8.143 32.656 9.821 33.266 6.268 30.684 3.751 34.252 3.233 35.847 0"/><polygon class="cls-2" points="51.189 0 52.785 3.233 56.352 3.751 53.771 6.268 54.38 9.821 51.189 8.143 47.998 9.821 48.607 6.268 46.026 3.751 49.594 3.233 51.189 0"/><polygon class="cls-2" points="66.531 0 68.127 3.233 71.694 3.751 69.113 6.268 69.722 9.821 66.531 8.143 63.34 9.821 63.949 6.268 61.368 3.751 64.935 3.233 66.531 0"/></g></g></svg>