<svg xmlns="http://www.w3.org/2000/svg" viewBox="0 0 20.066 20.066"><defs><style>.cls-1{fill:#fff;}</style></defs><title>profile</title><g id="Layer_2" data-name="Layer 2"><g id="Layer_1-2" data-name="Layer 1"><circle class="cls-1" cx="10.033" cy="10.033" r="10.033"/><path d="M13.064,8.38a3.176,3.176,0,0,1-.223,1.208,2.672,2.672,0,0,1-.641.945,2.893,2.893,0,0,1-1.018.615,4.218,4.218,0,0,1-1.45.22H8.5v3.626a.149.149,0,0,1-.023.08.147.147,0,0,1-.073.059.67.67,0,0,1-.136.036,1.527,1.527,0,0,1-.427,0,.682.682,0,0,1-.14-.036.144.144,0,0,1-.1-.139V6.124a.416.416,0,0,1,.139-.363.468.468,0,0,1,.271-.1H9.944c.191,0,.376.008.557.025a4.964,4.964,0,0,1,.634.11,2.506,2.506,0,0,1,.739.315,2.4,2.4,0,0,1,.641.564,2.488,2.488,0,0,1,.407.762A2.991,2.991,0,0,1,13.064,8.38Zm-.944.08a2.092,2.092,0,0,0-.242-1.043,1.688,1.688,0,0,0-.59-.638,1.938,1.938,0,0,0-.725-.263,4.911,4.911,0,0,0-.714-.055H8.5v4.116H9.791a2.973,2.973,0,0,0,1.04-.157,2.023,2.023,0,0,0,.7-.436,1.85,1.85,0,0,0,.435-.67A2.373,2.373,0,0,0,12.12,8.46Z"/></g></g></svg>